<?xml version="1.0" encoding="utf-8"?>
<!-- Generator: Adobe Illustrator 27.0.1, SVG Export Plug-In . SVG Version: 6.00 Build 0)  -->
<svg fill="#FFFFFF" version="1.1" id="Layer_1" xmlns="http://www.w3.org/2000/svg" xmlns:xlink="http://www.w3.org/1999/xlink" x="0px" y="0px"
	 viewBox="0 0 512 512" style="enable-background:new 0 0 512 512;" xml:space="preserve">
<style type="text/css">
	.st0{fill:#061922;}
</style>
<g>
	<path class="st0" d="M160.7,410.7h-19.6l-23.6,94.5h16.6l5.1-21.3h23.4l5.2,21.3h16.6L160.7,410.7z M143.1,467.3l7.8-31.8l7.6,31.8
		H143.1z"/>
	<polygon class="st0" points="246.1,410.7 246.1,505.1 229.6,505.1 229.6,465.4 208.1,465.4 208.1,505.1 191.6,505.1 191.6,410.7 
		208.1,410.7 208.1,448.9 229.6,448.9 229.6,410.7 	"/>
	<polygon class="st0" points="123.7,427.2 105.7,427.2 105.7,505.1 89.1,505.1 89.1,427.2 71.2,427.2 71.2,410.7 123.7,410.7 	"/>
	<path class="st0" d="M63.7,410.7v74.8c0,5.6-2.1,10.8-5.9,14.7c-3.8,3.8-9,5.9-14.7,5.9H28.7c-5.6,0-10.8-2.1-14.7-5.9
		c-3.8-3.8-5.9-9-5.9-14.7v-74.8h16.5v78.9h22.6v-78.9H63.7z"/>
	<path class="st0" d="M324.7,411.1V486c0,5.6-2.1,10.8-5.9,14.7c-3.8,3.8-9,5.9-14.7,5.9h-14.4c-5.6,0-10.8-2.1-14.7-5.9
		c-3.8-3.8-5.9-9-5.9-14.7v-18.8h16.5v23.1h22.5l0.1-79.1H324.7z"/>
	<path class="st0" d="M373.2,411.1h-19.6L330,505.6h16.6l5.1-21.3h23.4l5.2,21.3h16.6L373.2,411.1z M371.1,467.8h-15.4l7.8-31.8
		L371.1,467.8z"/>
	<polygon class="st0" points="450.6,427.3 420.1,489.1 450.6,489.1 450.6,505.6 401.5,505.6 401.5,489.5 401.5,489.4 432,427.7 
		401.5,427.7 401.5,411.1 450.6,411.1 450.6,427.2 	"/>
	<polygon class="st0" points="507.9,427.3 477.4,489.1 507.9,489.1 507.9,505.6 458.8,505.6 458.8,489.5 458.8,489.4 489.3,427.7 
		458.8,427.7 458.8,411.1 507.9,411.1 507.9,427.2 	"/>
	<path class="st0" d="M510.9,7.6l-49.9,107H261.4l-62.9,134.9h-56.4c0.4-6.7,1.8-13.5,4-20.1c5.4-16.3,15.6-29.7,28.4-39.3
		c3.4,3.8,6.4,8,9.1,12.4c0.4,0.7,1.3,0.6,1.6,0c0,0,0,0,0,0L276,7.6H510.9z"/>
	<path class="st0" d="M48.6,291.3c-5.7,11.4-13.8,21.1-23.7,28.5C16.6,310.2,10,299,5.8,286.2c-2.8-8.5-4.4-17.2-4.9-25.7H57
		C56.3,271.1,53.4,281.5,48.6,291.3"/>
	<path class="st0" d="M94,260.5v93.3c-22.9-1.3-44.7-10.6-61.4-26.1c10.7-8.3,19.5-19,25.8-31.5c5.7-11.3,8.9-23.4,9.6-35.7H94z"/>
	<path class="st0" d="M53,229.4c2.2,6.6,3.5,13.3,4,20.1H0.9c1.2-21.9,9.7-42.8,23.9-59.2C37.5,199.8,47.6,213.2,53,229.4"/>
	<path class="st0" d="M94,156.2v93.3H68c-0.5-7.9-2-15.8-4.5-23.5c-6-18-17-32.8-30.9-43.6c10-9.3,22.1-16.6,35.9-21.2
		C77,158.3,85.5,156.7,94,156.2"/>
	<path class="st0" d="M131,249.5h-26v-93.3c23,1.3,44.8,10.5,61.5,25.9c-14.4,11.1-25.2,26.2-31,43.8
		C133,233.7,131.5,241.6,131,249.5"/>
	<path class="st0" d="M166.6,327.9c-10,9.2-22,16.5-35.7,21c-8.6,2.8-17.2,4.5-25.8,4.9v-93.3H131c0.8,12.3,4,24.4,9.7,35.7
		C146.9,308.8,155.8,319.5,166.6,327.9"/>
	<path class="st0" d="M198.5,260.5c-1.2,22-9.8,42.9-24.1,59.4c-10-7.4-18.1-17.1-23.9-28.6c-4.9-9.8-7.7-20.2-8.4-30.8H198.5z"/>
</g>
</svg>
