<?xml version="1.0" encoding="utf-8"?>
<!-- Generator: Adobe Illustrator 27.2.0, SVG Export Plug-In . SVG Version: 6.00 Build 0)  -->
<svg version="1.1" id="LOGOS" xmlns="http://www.w3.org/2000/svg" xmlns:xlink="http://www.w3.org/1999/xlink" x="0px" y="0px"
	 viewBox="0 0 512 512" style="enable-background:new 0 0 512 512;" xml:space="preserve">
<style type="text/css">
	.st0{fill:#FFFFFF;}
	.st1{fill:#1D428A;}
	.st2{fill:#C8102E;}
</style>
<g>
	<path class="st0" d="M511,256c0,140.8-114.2,255-255,255S1,396.8,1,256C1,115.2,115.2,1,256,1S511,115.2,511,256"/>
	<path class="st1" d="M501.6,256c0,135.6-110,245.6-245.6,245.6c-135.6,0-245.6-110-245.6-245.6S120.4,10.4,256,10.4
		C391.6,10.4,501.6,120.4,501.6,256"/>
	<g>
		<polygon class="st0" points="48.3,297.9 53.3,313.9 70.4,313.9 56.6,323.9 61.6,339.7 48.3,330 34.9,339.7 39.9,323.9 26.1,313.9 
			43.1,313.9 		"/>
		<polygon class="st0" points="463.8,297.9 468.9,313.9 485.9,313.9 472.1,323.9 477.1,339.7 463.8,330 450.4,339.7 455.5,323.9 
			441.6,313.9 458.6,313.9 		"/>
		<polygon class="st0" points="107.9,383.7 113,399.7 130,399.7 116.2,409.8 121.2,425.5 107.9,415.9 94.5,425.5 99.6,409.8 
			85.7,399.7 102.7,399.7 		"/>
		<polygon class="st0" points="409.7,383.7 414.8,399.7 431.8,399.7 418,409.8 423,425.5 409.7,415.9 396.3,425.5 401.3,409.8 
			387.5,399.7 404.5,399.7 		"/>
		<polygon class="st0" points="201,439.6 206,455.6 223.1,455.6 209.3,465.7 214.3,481.4 201,471.8 187.5,481.4 192.6,465.6 
			178.8,455.6 195.8,455.6 		"/>
		<polygon class="st0" points="314.1,439.6 319.1,455.6 336.1,455.6 322.4,465.7 327.4,481.4 314.1,471.8 300.6,481.4 305.7,465.6 
			291.9,455.6 308.9,455.6 		"/>
	</g>
	<path class="st0" d="M440.1,257.2c0,101.7-82.4,184.1-184.1,184.1c-101.7,0-184.1-82.4-184.1-184.1C71.9,155.5,154.3,73,256,73
		C357.7,73,440.1,155.5,440.1,257.2"/>
	<path class="st1" d="M82.8,293.3c9.7,46.3,36.8,86,76.3,111.9c39.6,25.9,86.8,34.8,133.1,25.1c46.2-9.7,86.4-36.5,111.9-76.3
		c25.4-39.6,34.3-86.8,25.1-133.1c-9.2-46.3-36.8-85.9-76.3-111.8C313.2,83.3,266,74.3,219.8,84c-46.3,9.7-86,36.8-111.9,76.3
		C82.1,199.8,73.1,247.1,82.8,293.3"/>
	<g>
		<path class="st0" d="M316.2,119.3c0.6,6.9-2.6,13.6-9.5,20c-33.2-24.3-64.8-36.3-95.8-36.4c-6.7,0-13.1,0.5-19.4,1.5
			c9.8-4.1,20-7.3,30.6-9.5c27.7-5.8,55.8-4.4,82.2,3.7C310,104,315.5,111.3,316.2,119.3"/>
		<path class="st0" d="M281.6,405.1c34.9-32,51-100.7,60.7-141.7l1.5-6.4c5-20.9,13.8-36.5,23.2-45.8c35,54.3,30.3,110.5,21.4,145.7
			c-24.2,32.2-58.8,54.2-98.5,62.5c-11.3,2.4-22.7,3.5-34,3.5C264.2,418.9,272.8,413.1,281.6,405.1"/>
		<path class="st0" d="M345,172.2c14.1-11.9,25.5-20.9,33.5-26.8c17.5,19.1,30.2,42,37.2,67.3c-6.5-8.7-14.9-17.1-23.9-18.9
			c-7.8-1.6-15.8,0.6-23.3,5.9C361.9,190.5,354.1,181.3,345,172.2"/>
		<path class="st0" d="M93.4,249.7c16.1-43.2,75.2-60.9,97.4-67.5l1-0.3c7.3-2.2,17.8-4,29.9-6c28.6-4.8,63.9-10.9,85.2-26.8
			c8.6,6.6,17.5,14.1,26.7,22.8c-48.3,41-122.8,109.8-202.5,194.5c-18.6-21.2-31.4-46.9-37.4-75.2c-2.4-11.3-3.5-22.6-3.6-33.8
			C92,252.9,93.4,249.7,93.4,249.7"/>
		<path class="st0" d="M339.4,166.8c-9-8.5-17.8-16.1-26.5-22.8c8.1-7.9,11.8-16.4,11-25.4c-0.5-5.5-2.6-10.5-5.5-15.1
			c9.8,4,19.3,9,28.4,14.9c9.6,6.3,18.4,13.5,26.4,21.4C364.8,146,353.4,155.1,339.4,166.8"/>
		<path class="st0" d="M300.5,144.3c-20,13.8-53.1,19.4-80.1,24c-12.4,2.1-23.1,3.9-30.8,6.2l-1,0.3c-21.3,6.4-75,22.4-97.1,61.1
			c3.1-24.5,11.8-48.2,25.8-69.5c11.7-18,27.4-34.5,44.4-46.5C201,103.3,245,104.4,300.5,144.3"/>
		<path class="st0" d="M390.3,201.3c11.6,2.4,24,21.8,30,33.1c5.1,36.4-1.9,72.9-20.1,104.8c0.9-5.6,1.6-11.5,2.1-17.7
			c2.3-31-1.9-73.3-29.3-115.2C379,201.9,385,200.2,390.3,201.3"/>
	</g>
	<path class="st0" d="M339.1,177.2c9.1,9,16.9,18.2,23.4,27.5c-11.3,10.8-21,28.7-26.2,50.6l-1.5,6.4
		c-9.5,40.2-25.3,107.4-58.4,137.8c-13.7,12.6-27.1,19.1-39.1,22.5c-25.5-2.8-50.1-11.7-72.2-26.1c-10.7-7-20.4-15-29-24
		C216.6,286.5,291.5,217.6,339.1,177.2"/>
	<path class="st0" d="M301.8,306.4l4.5-1.2c2.7-0.7,4.6-1.6,4.6-5.6c0-3.3-0.9-9.2-4.8-9.2c-4.2,0-4.2,7.1-4.2,10.9V306.4z"/>
	<path class="st0" d="M247.8,303.9c0-14.2-0.5-26.4-10.1-26.4c-7.8,0-9.2,12.2-9.2,26.4c0,14.2-0.4,26.4,9.2,26.4
		C245.8,330.3,247.8,318.1,247.8,303.9"/>
	<path class="st0" d="M301.8,306.4l4.5-1.2c2.7-0.7,4.6-1.6,4.6-5.6c0-3.3-0.9-9.2-4.8-9.2c-4.2,0-4.2,7.1-4.2,10.9V306.4z"/>
	<path class="st0" d="M227.4,271.4h-0.2h0.3c4.6-7.2,13.4-10.6,22-10.6c19.5,0,31.4,16.8,31.4,39.4c0,26.8-18.1,42.7-40.5,42.7
		c-34.5,0-47-27.8-47-60c0-37.1,16.1-67.7,56.3-67.7c15.6,0,28.5,10.1,28.5,25.5c0,10-7.7,14.9-15.1,14.9c-10.8,0-14.3-9.1-15.8-17
		c-0.6-3.4,0.6-10.8-5-10.8c-11.7,0-13.6,22.8-14.1,31.2L227.4,271.4z"/>
	<path class="st0" d="M247.8,303.9c0-14.2-0.5-26.4-10.1-26.4c-7.8,0-9.2,12.2-9.2,26.4c0,14.2-0.4,26.4,9.2,26.4
		C245.8,330.3,247.8,318.1,247.8,303.9"/>
	<g>
		<path class="st0" d="M39,216.5c6.5,0.8,9.2,5.4,8.2,13.9l-0.7,6.2L50,237c4.5,0.5,6.2,0.4,6.7-3.2l4.2,0.5L59,251l-4.2-0.5
			c0.3-3.7-1.3-4.2-5.8-4.7l-13.1-1.5c-4.5-0.5-6.2-0.4-6.8,3.2L25,247l2.2-18.4C28.2,219.7,32.3,215.7,39,216.5z M42.5,234.4
			c0.7-5.6-1-8.6-4.9-9c-3.5-0.4-6,1.7-6.5,5.9c-0.4,3,0.7,3.5,3.9,3.9l7.3,0.9C42.4,235.5,42.4,235,42.5,234.4z"/>
		<path class="st0" d="M63.6,198c1.3-3.4-0.1-4.4-4.3-6.1l-12.1-5.1c-4.2-1.8-5.9-2.1-7.4,1.2l-3.9-1.6l6.5-15.6l3.8,1.6
			c-1.3,3.4,0.1,4.4,4.3,6.1l3.1,1.3l4.9-11.7l-3.1-1.3c-4.2-1.8-5.9-2.1-7.4,1.2l-3.8-1.6l6.5-15.6l3.9,1.6
			c-1.3,3.4,0.1,4.4,4.3,6.1l12.1,5.1c4.2,1.8,5.9,2.1,7.4-1.2l3.9,1.6l-6.5,15.6l-3.8-1.6c1.3-3.4-0.1-4.4-4.3-6.1l-5.3-2.2
			l-4.9,11.7l5.3,2.2c4.2,1.8,5.9,2.1,7.4-1.2L74,184l-6.5,15.6L63.6,198z"/>
		<path class="st0" d="M79.9,115.1c-2.1,3-1,4.3,2.7,7l10.5,7.9c3.6,2.7,5.2,3.5,7.5,0.6l3.4,2.5l-10.1,13.5l-3.4-2.5
			c2.1-3,0.9-4.2-2.7-7l-10.5-7.9c-3.6-2.7-5.1-3.5-7.4-0.6l-3.4-2.5l10.1-13.5L79.9,115.1z"/>
		<path class="st0" d="M117.9,117.1l-2.7-3.2c2.8-2.5,1.9-3.9-1-7.4l-8.5-10.1c-2.9-3.5-4.2-4.6-7.1-2.3L96,90.9L108.9,80l2.7,3.2
			c-2.8,2.5-1.9,3.9,1,7.4l9.4,11.2c2.2,2.6,3.2,3,5.9,0.8c3.6-3,5.1-8.4,3.8-15l3.7-0.8l3.8,12.4L117.9,117.1z"/>
		<path class="st0" d="M158.1,86.2l-1.7-3.8c3.2-1.9,3-4.1,2.9-7.8l-0.9-26.1l7-3.2l19.5,19c2.2,2.2,3.4,3.2,6.3,2.2l1.7,3.8
			l-15.4,7l-1.7-3.7c0.1,0,0.2-0.1,0.3-0.1c2.1-1,2.9-1.9,2.3-3.2c-0.2-0.5-0.5-0.9-0.9-1.3l-3.6-3.5L164,70l0.6,4.9
			c0.1,0.4,0.1,0.8,0.3,1.1c0.7,1.5,2.1,1.6,4.5,0.5l1.7,3.7L158.1,86.2z M170.6,62.4l-7.3-7.8l0.6,10.8L170.6,62.4z"/>
		<path class="st0" d="M210.2,61c3.6-0.6,3.7-2.3,3.1-6.8l-1.9-13c-0.6-4.5-1.2-6.1-4.9-5.7l-0.6-4.2l17-2.4
			c13.1-1.9,20.9,3.3,22.5,14.1c1.5,10.9-4.5,17.9-17.6,19.8l-17,2.4L210.2,61z M222.4,55c0.5,3.4,1.1,4.2,4.6,3.7
			c6.8-1,10.4-6.3,9.2-14.5C235,36.1,230,32,223.3,33c-3.5,0.5-3.8,1.5-3.3,4.9L222.4,55z"/>
		<path class="st0" d="M269.5,56c3.7,0.4,4.2-1.2,4.9-5.7l1.9-13c0.7-4.5,0.6-6.2-3-6.8l0.6-4.2l28.1,4.1l3.1,10.9l-3.4,1.2
			c-2.7-5.7-6.7-8.9-11.8-9.7c-3.4-0.5-3.9,0.4-4.4,3.8l-0.7,4.9l1.6,0.2c3.6,0.5,4.6-0.5,5.4-4.6l3.6,0.5L293,52.9l-3.6-0.5
			c0.1-4-1-6-3.8-6.4l-1.6-0.2l-1.2,7.9c-0.5,3.3-0.2,4.3,3.2,4.8c5,0.7,10.8-1.7,15.4-7.2l2.9,2.2l-6.8,10.9l-28.8-4.2L269.5,56z"
			/>
		<path class="st0" d="M322.5,70.9l1.7-3.8c3.4,1.4,4.3,0,6.2-4.2l5.3-12c1.8-4.2,2.3-5.8-1.1-7.4l1.7-3.8l15.4,6.8l-1.7,3.8
			c-3.4-1.4-4.4,0-6.2,4.2l-5.9,13.4c-1.4,3.1-1.3,4.2,1.9,5.6c4.3,1.9,9.7,0.8,15.1-3.3l2.3,3l-9.4,8.9L322.5,70.9z"/>
		<path class="st0" d="M409.2,96c-4.1,5.1-9.5,5-16.2-0.4l-4.8-3.9l-2.2,2.8c-2.9,3.5-3.7,5-0.9,7.4l-2.6,3.3l-13.1-10.6l2.6-3.3
			c2.9,2.2,4.2,1.1,7.1-2.4l8.3-10.2c2.9-3.5,3.7-5,0.9-7.4l2.6-3.3l14.4,11.7C412.1,85.1,413.4,90.7,409.2,96z M392.1,89.4
			c4.4,3.5,7.8,3.7,10.3,0.6c2.2-2.7,1.7-6-1.6-8.6c-2.3-1.9-3.4-1.3-5.4,1.2l-4.6,5.7C391.3,88.7,391.7,89,392.1,89.4z"/>
		<path class="st0" d="M411.7,126.7c2.2,3,3.7,2.3,7.5-0.4l10.8-7.5c3.7-2.6,4.9-3.8,2.9-6.9l3.4-2.4l9.7,13.9l-3.4,2.3
			c-2.2-3-3.7-2.3-7.5,0.4l-2.8,1.9l7.3,10.4l2.8-1.9c3.7-2.6,4.9-3.8,2.9-6.9l3.4-2.3l9.7,13.9l-3.4,2.4c-2.2-3-3.7-2.3-7.5,0.3
			l-10.8,7.5c-3.7,2.6-4.9,3.8-2.9,6.9l-3.4,2.4l-9.7-13.9l3.4-2.3c2.2,3,3.7,2.3,7.5-0.3l4.7-3.3l-7.3-10.4l-4.7,3.3
			c-3.7,2.6-4.9,3.8-2.9,6.9L418,143l-9.7-13.9L411.7,126.7z"/>
		<path class="st0" d="M473.1,184.7c-1.4-3.4-3.1-3.1-7.3-1.5l-12.3,4.7c-4.3,1.6-5.7,2.5-4.5,6l-3.9,1.5l-6-15.7l3.9-1.5
			c1.4,3.4,3.1,3.1,7.3,1.4l12.3-4.7c4.3-1.6,5.7-2.5,4.5-6l3.9-1.5l6,15.7L473.1,184.7z"/>
		<path class="st0" d="M451.1,213.9l4.2-0.5c0.9,3.6,3,4.1,6.6,5.1l25.2,6.8l1,7.7l-23.9,13c-2.7,1.5-4.1,2.3-4,5.4l-4.2,0.5
			l-2.2-16.8l4.1-0.5c0,0.1,0,0.3,0,0.4c0.3,2.3,0.9,3.3,2.4,3.2c0.5-0.1,1-0.2,1.5-0.5l4.4-2.4l-1.4-10.8l-4.9-0.8
			c-0.4-0.1-0.8-0.1-1.1-0.1c-1.6,0.2-2.1,1.6-1.9,4.2l-4.1,0.5L451.1,213.9z M470.2,232.9l9.6-4.7l-10.5-2.6L470.2,232.9z"/>
	</g>
	<g>
		<g>
			<path class="st0" d="M359.5,278.7c-3.8,0-6.7,1.7-8.8,4c-0.2-0.5-0.5-1-0.7-1.5l-1.8-3.6l-26.5,7.8v14.5h4.9c0.5,0,0.7,0.1,0.8,0
				c0.2,0.4,0.6,1.8,0.6,6.2V323l-4.8,0.7v15.9h36.7v-15.9l-4.8-0.7V318c0-2.9,0.6-8.2,1.3-11.4c1.4,0.4,3,0.7,4.8,0.7
				c6.6,0,11.2-5.9,11.2-14.4C372.3,284.4,367.1,278.7,359.5,278.7z"/>
			<path class="st0" d="M405.4,295.6c-0.3-1.2-0.4-1.7-0.4-2.3c0-4.3-1.7-14.4-17.8-14.4c-8.9,0-26.3,6.8-26.3,22.6
				c0,5.9,1.7,10.1,4.3,13.3c-3.5,2.1-5.6,6-5.6,11c0,5.7,2.9,15.3,22.1,15.3c16.4,0,25.9-8.5,25.9-23.4
				C407.5,303.5,406.2,298.7,405.4,295.6z"/>
			<path class="st0" d="M211.7,210.4c-1-1.2-2.5-1.8-4-1.8c-2.4,0-4.3,1.5-6.7,4c-7.8,8.3-18.4,12.6-30.6,12.6
				c-16,0-32.8-7.3-46.1-20.1c-1.1-1-2.5-1.6-3.9-1.6c-6.5,0-8.2,10.5-8.2,10.6l0,52.5l4.2,0.6c15.9,2.3,29.5,1.9,41.9-1.5
				c-13.4,12-43.7,44.8-43.3,76c0.1,5.8,3.6,6.4,5.2,6.4c1.9,0,3.2-1,4-1.7c0.2-0.2,0.5-0.4,0.8-0.7c4.3-3.2,11.3-5,19.2-5
				c6.5,0,13,1.3,17.8,3.6c0.9,0.4,2,0.9,3.3,0.9c1.5,0,2.9-0.6,3.9-1.7c1.7-1.9,1.5-4.2,1.4-5.7c-2.2-22.6,2.8-47.4,12.4-61.7
				l1.4-2.1c8.2-12.2,25.3-37.4,28.5-58.3C213.3,213.5,212.9,211.7,211.7,210.4z"/>
			<path class="st0" d="M333.6,310.7l-0.2-4c-0.2-2.6-0.5-5.1-1.2-7.4l-0.2-4.6l-0.8,1.3c-4-10.7-12.8-17.4-24.2-17.4
				c-17,0-28.9,13.4-28.9,32.7c0,14.7,8.6,29.6,27.9,29.6c11,0,21.2-5.6,26.4-14.5l0.7-1.2l-0.6-14.3L333.6,310.7z M313,319.9
				c-1.8,0-3.1-1.2-3.9-2.6l9.4-2.5C315.8,318,313.8,319.7,313,319.9z"/>
			<path class="st0" d="M270.4,264.3c-1-1.4-2-2.9-2.9-4.2c8.3-1.7,15.7-8.2,15.7-19.3c0-17.3-14.4-30.4-33.4-30.4
				c-38.3,0-61.1,27.1-61.1,72.6c0,41.2,18.9,64.9,51.9,64.9c26.7,0,45.4-19.6,45.4-47.6C285.9,286.3,276.6,273,270.4,264.3z"/>
		</g>
		<g>
			<path class="st1" d="M313.1,324.9c-5.9,0-9.4-5.4-10-10.9l25.5-6.9c-0.7-12.4-7.9-23.5-21.5-23.5c-14.4,0-24,11.2-24,27.8
				c0,12.9,7.4,24.7,23,24.7c8.9,0,17.6-4.2,22.2-12.1l-5-6C320.9,321.9,318,324.9,313.1,324.9z M301.9,301.4c0-3.8,0-10.9,4.2-10.9
				c3.9,0,4.8,6,4.8,9.2c0,3.9-1.8,4.9-4.6,5.6l-4.5,1.2V301.4z"/>
			<path class="st1" d="M355,334.7h-26.9v-6.8l4.8-0.7v-21.1c0-7.5-1-11.1-6.3-11.1v-5.9l19.1-5.6c2.2,4.2,2.9,9.1,3.2,13.9h0.2
				c1.9-5.7,4.3-13.8,10.5-13.8c5.5,0,7.9,4.2,7.9,9.4c0,5.2-2.3,9.5-6.3,9.5c-2.7,0-5.1-1.2-6.4-1.6c-3.5-1.2-4.6,14-4.6,17.2v9.2
				l4.8,0.7V334.7z"/>
			<path class="st1" d="M400.2,293.3c0,4.2-3.6,6.3-7.4,6.3c-4.6,0-7.9-3.8-8.7-8.3c-2,0-3.4,1-3.4,4.4c0,7.8,22,2.2,22,22
				c0,14.8-10.7,18.5-21,18.5c-6.3,0-17.2-0.8-17.2-10.4c0-4.3,2.4-7.6,6.7-7.6c6.7,0,7.8,6.1,9,10.5c0.3,1.1,1.3,1.3,2.2,1.3
				c3.5,0,6.1-1.5,6.1-3.8c0-8.9-22.6-5.4-22.6-24.7c0-12.2,14.4-17.7,21.4-17.7C395.2,283.8,400.2,286.4,400.2,293.3"/>
			<path class="st1" d="M249.7,260.9c-8.6,0-17.4,3.4-22,10.6h-0.2h-0.2h0.2l0.9-12.4c0.5-8.4,2.4-31.2,14.1-31.2
				c5.6,0,4.3,7.4,5,10.8c1.5,7.9,5,17,15.8,17c7.4,0,15.1-4.9,15.1-14.9c0-15.4-12.9-25.5-28.5-25.5c-40.1,0-56.3,30.6-56.3,67.7
				c0,32.2,12.5,60,47,60c22.4,0,40.5-15.9,40.5-42.7C281.1,277.7,269.2,260.9,249.7,260.9z M237.8,330.4c-9.6,0-9.2-12.3-9.2-26.4
				c0-14.2,1.3-26.4,9.2-26.4c9.6,0,10.1,12.2,10.1,26.4C247.9,318.1,245.9,330.4,237.8,330.4z"/>
			<path class="st2" d="M117.1,214.6v47.8c26.8,4,58.7,1.3,81.3-31.7c0.9-1.4,1.5-0.4,0.9,0.8c-6.3,12.8-21.2,24.7-34.1,34.9
				c-12.4,9.7-45.7,44.6-45.2,75.3c0,2.4,0.1,1.7,2.2,0.2c10.1-7.5,29.9-7.7,42-1.9c1.7,0.8,1.8,0.6,1.6-1.6
				c-2.3-23.8,3-49.8,13.2-64.9c7-10.5,25.9-37.4,29.2-58.5c0.3-2.2-0.8-1.8-3.5,1c-21.4,22.6-60.2,22.1-85.1-1.9
				C118,212.5,117.3,213.2,117.1,214.6"/>
		</g>
	</g>
	<g>
		
			<ellipse transform="matrix(0.2285 -0.9735 0.9735 0.2285 -54.7392 302.6509)" class="st0" cx="163.6" cy="185.9" rx="45.8" ry="45.8"/>
		<g>
			<polygon class="st1" points="163.5,141.7 165.1,146.5 170.3,146.5 166,149.6 167.6,154.4 163.5,151.5 159.4,154.4 161,149.6 
				156.8,146.5 162,146.5 			"/>
			<polygon class="st1" points="194,159.5 195.6,164.3 200.8,164.3 196.6,167.4 198.1,172.2 194.1,169.2 190,172.2 191.6,167.4 
				187.3,164.3 192.5,164.3 			"/>
			<polygon class="st1" points="181,145.7 182.5,150.6 187.7,150.6 183.5,153.7 185,158.5 181,155.5 176.9,158.5 178.4,153.6 
				174.2,150.6 179.4,150.6 			"/>
			<polygon class="st1" points="199,176.3 200.6,181.1 205.8,181.1 201.6,184.2 203.1,189 199.1,186 195,189 196.5,184.2 
				192.3,181.1 197.5,181.1 			"/>
			<polygon class="st1" points="196.8,194 198.4,198.9 203.6,198.9 199.4,202 200.9,206.8 196.9,203.8 192.8,206.8 194.3,201.9 
				190.1,198.9 195.3,198.9 			"/>
			<polygon class="st1" points="187,208.2 188.6,213.1 193.8,213.1 189.6,216.1 191.1,220.9 187.1,218 183,220.9 184.5,216.1 
				180.3,213.1 185.5,213.1 			"/>
			<polygon class="st1" points="171.6,216.1 173.2,221 178.3,221 174.1,224.1 175.7,228.9 171.6,225.9 167.6,228.9 169.1,224.1 
				164.9,221 170.1,221 			"/>
			<polygon class="st1" points="132.5,157.9 130.9,162.7 125.7,162.7 129.9,165.8 128.4,170.6 132.4,167.6 136.5,170.6 135,165.8 
				139.2,162.7 134,162.7 			"/>
			<polygon class="st1" points="145.2,145.7 143.7,150.6 138.5,150.6 142.7,153.7 141.1,158.5 145.2,155.5 149.3,158.5 147.8,153.6 
				152,150.6 146.8,150.6 			"/>
			<polygon class="st1" points="126.5,174.1 125,178.9 119.8,178.9 124,182 122.5,186.8 126.5,183.9 130.6,186.8 129,182 
				133.3,178.9 128.1,178.9 			"/>
			<polygon class="st1" points="128.1,191.8 126.5,196.7 121.3,196.7 125.6,199.8 124,204.6 128.1,201.6 132.2,204.6 130.6,199.8 
				134.8,196.7 129.6,196.7 			"/>
			<polygon class="st1" points="137.9,206.3 136.4,211.2 131.2,211.2 135.4,214.3 133.8,219.1 137.9,216.1 142,219.1 140.4,214.3 
				144.6,211.2 139.5,211.2 			"/>
			<polygon class="st1" points="153.3,215.5 151.8,220.4 146.6,220.4 150.8,223.5 149.3,228.3 153.3,225.3 157.4,228.3 155.8,223.4 
				160.1,220.4 154.9,220.4 			"/>
		</g>
	</g>
</g>
</svg>
